# xmcd CD database file
#
# Track frame offsets:
#	150
#	11313
#	23023
#	37190
#	55190
#	57620
#	80566
#	105360
#	121552
#	135409
#	154279
#	169110
#	192813
#	208515
#	220939
#	238227
#	243819
#
# Disc length: 3459 seconds
#
# Revision: 0
# Processed by: cddbd v1.5.1PL2 Copyright (c) Steve Scherf et al.
# Submitted via: Feurio! 1.68 - http://www.feurio.com
#
DISCID=dc0d8111
DTITLE=Blues Brothers - 2000
DYEAR=1900
DGENRE=Blues
TTITLE0=Perry Mason Theme
TTITLE1=Rawhide
TTITLE2=Riders In The Sky
TTITLE3=New Orleans
TTITLE4=Harmonica Musing
TTITLE5=Season Of The Witch
TTITLE6=Maybe I'm Wrong
TTITLE7=The Blues Don't Bother Me
TTITLE8=Born In Chicago
TTITLE9=Funky Nassau
TTITLE10=Cheaper to Keep Her
TTITLE11=How Blue Can You Get
TTITLE12=Turn On Your Love Light
TTITLE13=Looking For A Fox
TTITLE14=John The Revalator
TTITLE15=Let There Be Drums
TTITLE16=634-5789
EXTD=
EXTT0=
EXTT1=
EXTT2=
EXTT3=
EXTT4=
EXTT5=
EXTT6=
EXTT7=
EXTT8=
EXTT9=
EXTT10=
EXTT11=
EXTT12=
EXTT13=
EXTT14=
EXTT15=
EXTT16=
PLAYORDER=
